<svg width="525" height="31" viewBox="0 0 525 31" fill="none" xmlns="http://www.w3.org/2000/svg">
<path d="M0.666667 14C0.666667 21.3638 6.6362 27.3333 14 27.3333C21.3638 27.3333 27.3333 21.3638 27.3333 14C27.3333 6.6362 21.3638 0.666667 14 0.666667C6.6362 0.666667 0.666667 6.6362 0.666667 14ZM145.167 14C145.167 21.3638 151.136 27.3333 158.5 27.3333C165.864 27.3333 171.833 21.3638 171.833 14C171.833 6.6362 165.864 0.666667 158.5 0.666667C151.136 0.666667 145.167 6.6362 145.167 14ZM354.167 17C354.167 24.3638 360.136 30.3333 367.5 30.3333C374.864 30.3333 380.833 24.3638 380.833 17C380.833 9.6362 374.864 3.66667 367.5 3.66667C360.136 3.66667 354.167 9.6362 354.167 17ZM498.167 17C498.167 24.3638 504.136 30.3333 511.5 30.3333C518.864 30.3333 524.833 24.3638 524.833 17C524.833 9.6362 518.864 3.66667 511.5 3.66667C504.136 3.66667 498.167 9.6362 498.167 17ZM14 14V16.5H158.5V14V11.5H14V14ZM367.5 17V19.5H511.5V17V14.5H367.5V17Z" fill="#F8B536"/>
</svg>
